<svg width="16" height="16" viewBox="0 0 16 16" fill="none" xmlns="http://www.w3.org/2000/svg">
<path d="M6 5.33317C6 6.43774 6.89543 7.33317 8 7.33317C9.10457 7.33317 10 6.43774 10 5.33317M2 11.2V4.79997C2 4.05323 2 3.67958 2.14532 3.39437C2.27316 3.14349 2.47698 2.93966 2.72786 2.81183C3.01308 2.6665 3.38673 2.6665 4.13346 2.6665H11.8668C12.6135 2.6665 12.9864 2.6665 13.2716 2.81183C13.5225 2.93966 13.727 3.14349 13.8548 3.39437C14 3.67931 14 4.0525 14 4.79778V11.2022C14 11.9475 14 12.3202 13.8548 12.6051C13.727 12.856 13.5225 13.0602 13.2716 13.188C12.9867 13.3332 12.614 13.3332 11.8687 13.3332H4.13127C3.386 13.3332 3.0128 13.3332 2.72786 13.188C2.47698 13.0602 2.27316 12.856 2.14532 12.6051C2 12.3199 2 11.9467 2 11.2Z" stroke="#680099" stroke-width="1.5" stroke-linecap="round" stroke-linejoin="round"/>
</svg>
