<svg width="16" height="16" viewBox="0 0 16 16" fill="none" xmlns="http://www.w3.org/2000/svg">
<path fill-rule="evenodd" clip-rule="evenodd" d="M0.5 13.5C0.5 13.2239 0.723858 13 1 13H15C15.2761 13 15.5 13.2239 15.5 13.5C15.5 13.7761 15.2761 14 15 14H1C0.723858 14 0.5 13.7761 0.5 13.5Z" fill="#680099"/>
<path fill-rule="evenodd" clip-rule="evenodd" d="M1.79289 1.79289C1.98043 1.60536 2.23478 1.5 2.5 1.5H8.5C8.76522 1.5 9.01957 1.60536 9.20711 1.79289C9.39464 1.98043 9.5 2.23478 9.5 2.5V13.5C9.5 13.7761 9.27614 14 9 14C8.72386 14 8.5 13.7761 8.5 13.5L8.5 2.5H2.5L2.5 13.5C2.5 13.7761 2.27614 14 2 14C1.72386 14 1.5 13.7761 1.5 13.5V2.5C1.5 2.23478 1.60536 1.98043 1.79289 1.79289Z" fill="#680099"/>
<path fill-rule="evenodd" clip-rule="evenodd" d="M8.5 6C8.5 5.72386 8.72386 5.5 9 5.5H13.5C13.7652 5.5 14.0196 5.60536 14.2071 5.79289C14.3946 5.98043 14.5 6.23478 14.5 6.5V13.5C14.5 13.7761 14.2761 14 14 14C13.7239 14 13.5 13.7761 13.5 13.5L13.5 6.5L9 6.5C8.72386 6.5 8.5 6.27614 8.5 6Z" fill="#680099"/>
<path fill-rule="evenodd" clip-rule="evenodd" d="M3.5 4.5C3.5 4.22386 3.72386 4 4 4H6C6.27614 4 6.5 4.22386 6.5 4.5C6.5 4.77614 6.27614 5 6 5H4C3.72386 5 3.5 4.77614 3.5 4.5Z" fill="#680099"/>
<path fill-rule="evenodd" clip-rule="evenodd" d="M4.5 8.5C4.5 8.22386 4.72386 8 5 8H7C7.27614 8 7.5 8.22386 7.5 8.5C7.5 8.77614 7.27614 9 7 9H5C4.72386 9 4.5 8.77614 4.5 8.5Z" fill="#680099"/>
<path fill-rule="evenodd" clip-rule="evenodd" d="M3.5 11C3.5 10.7239 3.72386 10.5 4 10.5H6C6.27614 10.5 6.5 10.7239 6.5 11C6.5 11.2761 6.27614 11.5 6 11.5H4C3.72386 11.5 3.5 11.2761 3.5 11Z" fill="#680099"/>
<path fill-rule="evenodd" clip-rule="evenodd" d="M10.5 11C10.5 10.7239 10.7239 10.5 11 10.5H12C12.2761 10.5 12.5 10.7239 12.5 11C12.5 11.2761 12.2761 11.5 12 11.5H11C10.7239 11.5 10.5 11.2761 10.5 11Z" fill="#680099"/>
<path fill-rule="evenodd" clip-rule="evenodd" d="M10.5 8.5C10.5 8.22386 10.7239 8 11 8H12C12.2761 8 12.5 8.22386 12.5 8.5C12.5 8.77614 12.2761 9 12 9H11C10.7239 9 10.5 8.77614 10.5 8.5Z" fill="#680099"/>
</svg>
